<?xml version="1.0" encoding="utf-8"?>
<!-- Generator: Adobe Illustrator 16.0.0, SVG Export Plug-In . SVG Version: 6.00 Build 0)  -->
<!DOCTYPE svg PUBLIC "-//W3C//DTD SVG 1.1//EN" "http://www.w3.org/Graphics/SVG/1.1/DTD/svg11.dtd">
<svg version="1.1" id="Capa_1" xmlns="http://www.w3.org/2000/svg" xmlns:xlink="http://www.w3.org/1999/xlink" x="0px" y="0px"
	 width="1080px" height="1080px" viewBox="0 0 1080 1080" enable-background="new 0 0 1080 1080" xml:space="preserve">
<rect x="-37" y="-34" fill="#1A1A1A" width="1156" height="1156"/>
<g id="_1955900067056_5_">
	<path fill-rule="evenodd" clip-rule="evenodd" fill="#446F2F" d="M461.361,240.088c0,0-283.71,137.568,157.665,653.117
		c-28.135,28.239-55.173,45.16-78.497,45.16c-109.701,0-301.707-374.17-301.707-540.791c0-166.628,135.077-301.706,301.707-301.706
		c166.622,0,301.699,135.078,301.699,301.706c0,38.822-10.432,88.92-27.807,142.917c16.555-109.607-137.164-321.706-276.424-321.706
		C509.953,218.785,483.727,226.566,461.361,240.088L461.361,240.088z"/>
	<path fill-rule="evenodd" clip-rule="evenodd" fill="#333836" d="M389.648,367.133c0,81.932,66.418,148.348,148.35,148.348
		c79.875,0,144.995-63.129,148.209-142.215c96.516,103.187,93.822,258.031,93.814,258.631
		C736.157,734.475,675.416,836.59,619.026,893.205C177.651,377.652,461.361,240.088,461.361,240.088
		c-42.976,25.982-71.713,73.159-71.713,127.047V367.133z"/>
	<defs>
		<filter id="Adobe_OpacityMaskFilter" filterUnits="userSpaceOnUse" x="371.603" y="240.088" width="247.424" height="653.117">
			<feColorMatrix  type="matrix" values="1 0 0 0 0  0 1 0 0 0  0 0 1 0 0  0 0 0 1 0"/>
		</filter>
	</defs>
	<mask maskUnits="userSpaceOnUse" x="371.603" y="240.088" width="247.424" height="653.117" id="id24_6_">
		<defs>
			
				<filter id="Adobe_OpacityMaskFilter_1_" filterUnits="userSpaceOnUse" x="371.605" y="240.088" width="247.421" height="653.117">
				<feFlood  style="flood-color:white;flood-opacity:1" result="back"/>
				<feBlend  in="SourceGraphic" in2="back" mode="normal"/>
			</filter>
		</defs>
		
			<mask maskUnits="userSpaceOnUse" x="371.605" y="240.088" width="247.421" height="653.117" id="id24_6_" filter="url(#Adobe_OpacityMaskFilter)">
			<g filter="url(#Adobe_OpacityMaskFilter_1_)">
				<defs>
					
						<filter id="Adobe_OpacityMaskFilter_2_" filterUnits="userSpaceOnUse" x="371.605" y="240.088" width="247.421" height="653.117">
						<feFlood  style="flood-color:white;flood-opacity:1" result="back"/>
						<feBlend  in="SourceGraphic" in2="back" mode="normal"/>
					</filter>
				</defs>
				<mask maskUnits="userSpaceOnUse" x="371.605" y="240.088" width="247.421" height="653.117" id="id24_6_">
				</mask>
				
					<linearGradient id="SVGID_1_" gradientUnits="userSpaceOnUse" x1="124372.7813" y1="-185697.3125" x2="141394.4844" y2="-151428.5" gradientTransform="matrix(-0.0188 0 0 -0.0188 2949.0801 -2691.8218)">
					<stop  offset="0" style="stop-color:#FFFFFF"/>
					<stop  offset="1" style="stop-color:#000000"/>
				</linearGradient>
				
					<rect x="371.605" y="240.088" mask="url(#id24_6_)" fill-rule="evenodd" clip-rule="evenodd" fill="url(#SVGID_1_)" width="247.421" height="653.117"/>
			</g>
		</mask>
		
			<linearGradient id="SVGID_2_" gradientUnits="userSpaceOnUse" x1="124372.7813" y1="-185697.3125" x2="141394.4844" y2="-151428.5" gradientTransform="matrix(-0.0188 0 0 -0.0188 2949.0801 -2691.8218)">
			<stop  offset="0" style="stop-color:#FFFFFF"/>
			<stop  offset="1" style="stop-color:#FFFFFF"/>
		</linearGradient>
		<rect x="371.605" y="240.088" fill-rule="evenodd" clip-rule="evenodd" fill="url(#SVGID_2_)" width="247.421" height="653.117"/>
	</mask>
	<path fill-rule="evenodd" clip-rule="evenodd" fill="#1A1A1A" d="M522.116,514.644c-45.608,144.485,96.91,378.562,96.91,378.562
		C177.651,377.652,461.361,240.088,461.361,240.088c-42.976,25.982-71.713,73.159-71.713,127.045
		C389.648,443.699,447.658,506.717,522.116,514.644z"/>
	<path fill-rule="evenodd" clip-rule="evenodd" fill="#009145" d="M562.654,845.804
		C178.223,369.163,444.406,240.088,444.406,240.088c22.366-13.521,48.594-21.303,76.639-21.303c2.762,0,5.527,0.084,8.307,0.248
		c-24.786,1.426-47.941,8.934-67.99,21.055c0,0-283.71,137.568,157.665,653.117c-2.092,2.104-4.183,4.142-6.267,6.118
		C594.749,883.118,576.438,862.424,562.654,845.804L562.654,845.804z"/>
	<path fill-rule="evenodd" clip-rule="evenodd" fill="#009145" d="M585.029,163.684c-166.63,0-301.705,135.078-301.705,301.707
		c0,93.092,59.935,250.96,131.958,372.173c-90.021-122.952-176.46-328.19-176.46-439.989c0-166.628,135.077-301.706,301.707-301.706
		c120.1,0,223.814,70.179,272.359,171.766C757.578,203.953,676.01,163.685,585.029,163.684L585.029,163.684z"/>
	<path fill-rule="evenodd" clip-rule="evenodd" fill="#54BBE7" d="M417.295,365.788c0,66.642,54.021,120.665,120.664,120.665
		c66.633,0,120.66-54.023,120.66-120.665c0-66.637-54.027-120.659-120.66-120.659C471.316,245.129,417.295,299.151,417.295,365.788z
		"/>
</g>
</svg>
