<?xml version="1.0" encoding="utf-8"?>
<!-- Generator: Adobe Illustrator 16.0.0, SVG Export Plug-In . SVG Version: 6.00 Build 0)  -->
<!DOCTYPE svg PUBLIC "-//W3C//DTD SVG 1.1//EN" "http://www.w3.org/Graphics/SVG/1.1/DTD/svg11.dtd">
<svg version="1.1" id="Capa_1" xmlns="http://www.w3.org/2000/svg" xmlns:xlink="http://www.w3.org/1999/xlink" x="0px" y="0px"
	 width="1080px" height="1080px" viewBox="0 0 1080 1080" enable-background="new 0 0 1080 1080" xml:space="preserve">
<rect x="-36" y="-34" fill="#1A1A1A" width="1156" height="1156"/>
<g>
	<g id="_1955900067056_3_">
		<path fill-rule="evenodd" clip-rule="evenodd" fill="#446F2F" d="M517.738,177.27c0,0-160.527,77.838,89.209,369.543
			c-15.919,15.979-31.218,25.553-44.415,25.553c-62.07,0-170.71-211.711-170.71-305.988c0-94.279,76.429-170.709,170.71-170.709
			c94.277,0,170.706,76.43,170.706,170.709c0,21.967-5.902,50.313-15.733,80.865c9.367-62.018-77.609-182.025-156.404-182.025
			C545.232,165.217,530.393,169.619,517.738,177.27L517.738,177.27z"/>
		<path fill-rule="evenodd" clip-rule="evenodd" fill="#333836" d="M477.162,249.153c0,46.358,37.58,83.938,83.938,83.938
			c45.194,0,82.04-35.72,83.858-80.468c54.61,58.385,53.086,145.998,53.082,146.338c-24.819,58.04-59.188,115.818-91.094,147.852
			C357.211,255.105,517.738,177.27,517.738,177.27C493.422,191.971,477.162,218.664,477.162,249.153L477.162,249.153z"/>
		<defs>
			<filter id="Adobe_OpacityMaskFilter" filterUnits="userSpaceOnUse" x="466.951" y="177.27" width="139.996" height="369.543">
				<feColorMatrix  type="matrix" values="1 0 0 0 0  0 1 0 0 0  0 0 1 0 0  0 0 0 1 0"/>
			</filter>
		</defs>
		<mask maskUnits="userSpaceOnUse" x="466.951" y="177.27" width="139.996" height="369.543" id="id24_4_">
			<defs>
				
					<filter id="Adobe_OpacityMaskFilter_1_" filterUnits="userSpaceOnUse" x="466.953" y="177.27" width="139.994" height="369.543">
					<feFlood  style="flood-color:white;flood-opacity:1" result="back"/>
					<feBlend  in="SourceGraphic" in2="back" mode="normal"/>
				</filter>
			</defs>
			
				<mask maskUnits="userSpaceOnUse" x="466.953" y="177.27" width="139.994" height="369.543" id="id24_4_" filter="url(#Adobe_OpacityMaskFilter)">
				<g filter="url(#Adobe_OpacityMaskFilter_1_)">
					<defs>
						
							<filter id="Adobe_OpacityMaskFilter_2_" filterUnits="userSpaceOnUse" x="466.953" y="177.27" width="139.994" height="369.543">
							<feFlood  style="flood-color:white;flood-opacity:1" result="back"/>
							<feBlend  in="SourceGraphic" in2="back" mode="normal"/>
						</filter>
					</defs>
					<mask maskUnits="userSpaceOnUse" x="466.953" y="177.27" width="139.994" height="369.543" id="id24_4_">
					</mask>
					
						<linearGradient id="SVGID_1_" gradientUnits="userSpaceOnUse" x1="260793.375" y1="-169441.1875" x2="270424.5313" y2="-150051.3438" gradientTransform="matrix(-0.0188 0 0 -0.0188 5505.249 -2691.8218)">
						<stop  offset="0" style="stop-color:#FFFFFF"/>
						<stop  offset="1" style="stop-color:#000000"/>
					</linearGradient>
					
						<rect x="466.953" y="177.27" mask="url(#id24_4_)" fill-rule="evenodd" clip-rule="evenodd" fill="url(#SVGID_1_)" width="139.994" height="369.543"/>
				</g>
			</mask>
			
				<linearGradient id="SVGID_2_" gradientUnits="userSpaceOnUse" x1="260793.375" y1="-169441.1875" x2="270424.5313" y2="-150051.3438" gradientTransform="matrix(-0.0188 0 0 -0.0188 5505.249 -2691.8218)">
				<stop  offset="0" style="stop-color:#FFFFFF"/>
				<stop  offset="1" style="stop-color:#FFFFFF"/>
			</linearGradient>
			<rect x="466.953" y="177.27" fill-rule="evenodd" clip-rule="evenodd" fill="url(#SVGID_2_)" width="139.994" height="369.543"/>
		</mask>
		<path fill-rule="evenodd" clip-rule="evenodd" fill="#1A1A1A" d="M552.114,332.617c-25.806,81.752,54.833,214.195,54.833,214.195
			C357.211,255.105,517.738,177.27,517.738,177.27c-24.316,14.701-40.576,41.395-40.576,71.884
			C477.162,292.476,509.984,328.132,552.114,332.617z"/>
		<path fill-rule="evenodd" clip-rule="evenodd" fill="#009145" d="M575.051,519.992C357.534,250.303,508.145,177.27,508.145,177.27
			c12.655-7.65,27.495-12.053,43.363-12.053c1.563,0,3.128,0.047,4.7,0.141c-14.024,0.807-27.126,5.054-38.47,11.912
			c0,0-160.527,77.838,89.209,369.543c-1.184,1.19-2.366,2.344-3.546,3.462C593.211,541.105,582.85,529.396,575.051,519.992
			L575.051,519.992z"/>
		<path fill-rule="evenodd" clip-rule="evenodd" fill="#009145" d="M587.711,134.039c-94.281,0-170.709,76.43-170.709,170.71
			c0,52.673,33.912,141.997,74.664,210.581c-50.936-69.568-99.844-185.695-99.844-248.953c0-94.279,76.429-170.709,170.71-170.709
			c67.954,0,126.638,39.708,154.105,97.188C685.342,156.824,639.189,134.039,587.711,134.039L587.711,134.039z"/>
		<path fill-rule="evenodd" clip-rule="evenodd" fill="#54BBE7" d="M492.805,248.393c0,37.707,30.566,68.274,68.273,68.274
			c37.702,0,68.271-30.567,68.271-68.274c0-37.704-30.569-68.271-68.271-68.271C523.371,180.122,492.805,210.688,492.805,248.393z"
			/>
	</g>
	<g>
		<path fill="#FFFFFF" d="M179.876,868.637c0,17.967-8.981,26.95-26.951,26.95h-27.361V688.955
			c2.858-64.524,36.345-96.375,101.275-96.375c66.972,0,100.46,36.345,100.46,109.033c0,73.506-28.584,111.484-86.168,113.526
			c-26.951,0-47.369-11.026-61.255-33.486V868.637z M226.022,766.543c29.401,0,44.512-20.827,45.739-62.48
			c0-43.695-15.52-65.338-46.557-65.338c-31.035,0-45.737,21.643-45.329,65.338C181.51,745.716,196.622,766.543,226.022,766.543z"/>
		<path fill="#FFFFFF" d="M547.413,704.063c0,74.325-33.075,111.895-98.417,111.895c-65.341,0-98.009-37.569-98.009-111.895
			c0-75.138,32.668-112.301,98.009-112.301C514.338,591.762,547.413,628.925,547.413,704.063z M406.117,704.063
			c0.408,42.063,14.704,63.299,42.471,63.299c27.771,0,41.655-22.053,42.062-64.932c0-42.063-13.884-62.891-41.653-62.891
			C420.411,639.539,406.117,661.186,406.117,704.063z"/>
		<path fill="#446F2F" d="M601.724,595.029c17.562,0,26.139,8.575,26.139,26.134v189.894h-54.315V595.029H601.724z"/>
		<path fill="#FFFFFF" d="M814.892,811.057c-17.968-1.226-26.953-9.803-26.953-26.954V673.028
			c-1.225-22.46-13.474-33.489-37.568-33.489s-36.346,11.029-36.754,33.489v138.028h-55.131V684.052
			c0-61.662,31.035-92.29,92.7-92.29c61.666,0,91.885,30.628,91.477,92.29v127.005H814.892z"/>
		<path fill="#FFFFFF" d="M927.191,633.823h-5.717v119.653c0,8.984,5.307,13.885,15.926,13.885h16.742v41.244
			c-17.561,1.635-36.755,1.635-57.171-0.408c-20.42-2.041-30.222-14.699-29.813-38.794V533.365h28.18
			c14.294,0,26.137,13.068,26.137,27.362v34.302h32.668v11.843C954.143,622.39,942.3,633.823,927.191,633.823z"/>
	</g>
</g>
</svg>
